<?xml version="1.0"?>
<svg xmlns="http://www.w3.org/2000/svg" id="Layer_3" data-name="Layer 3" viewBox="0 0 64 64" width="512" height="512"><path d="M32,1a1,1,0,0,0-1,1V5.025A27.028,27.028,0,0,0,5.025,31H2a1,1,0,0,0-1,1A31,31,0,1,0,32,1Zm1,2.017A29.039,29.039,0,0,1,60.983,31H33ZM27,56.5c-.678-.138-1.343-.31-2-.5V49h2Zm4,.478c-.674-.027-1.341-.082-2-.161V41h2ZM33,45h2V56.814c-.659.079-1.326.134-2,.161Zm4,4h2V56c-.657.192-1.322.364-2,.5Zm3-2H37V44a1,1,0,0,0-1-1H33V40a1,1,0,0,0-1-1H28a1,1,0,0,0-1,1v7H24a1,1,0,0,0-1,1v7.317a25.063,25.063,0,0,1-7.946-4.957L32,33.414,48.946,50.36A25.063,25.063,0,0,1,41,55.317V48A1,1,0,0,0,40,47Zm10.36,1.946L34.414,33H56.975A24.906,24.906,0,0,1,50.36,48.946ZM31,7.025V31.586L13.64,48.946A24.98,24.98,0,0,1,31,7.025ZM32,61A29.036,29.036,0,0,1,3.017,33H5.025a26.993,26.993,0,0,0,53.95,0h2A29.031,29.031,0,0,1,32,61Z"/><path d="M46,18h2a3,3,0,0,0-3-3V14H43v1a3,3,0,0,0,0,6v2a1,1,0,0,1-1-1H40a3,3,0,0,0,3,3v1h2V25a3,3,0,0,0,0-6V17A1,1,0,0,1,46,18Zm0,4a1,1,0,0,1-1,1V21A1,1,0,0,1,46,22Zm-3-3a1,1,0,0,1,0-2Z"/><path d="M19,28H17a3,3,0,0,0,3,3v1h2V31a3,3,0,0,0,0-6V23a1,1,0,0,1,1,1h2a3,3,0,0,0-3-3V20H20v1a3,3,0,0,0,0,6v2A1,1,0,0,1,19,28Zm0-4a1,1,0,0,1,1-1v2A1,1,0,0,1,19,24Zm3,3a1,1,0,0,1,0,2Z"/><path d="M44,11a9,9,0,1,0,9,9A9.01,9.01,0,0,0,44,11Zm0,16a7,7,0,1,1,7-7A7.008,7.008,0,0,1,44,27Z"/></svg>
